<svg width="16" height="16" viewBox="0 0 16 16" fill="none" xmlns="http://www.w3.org/2000/svg">
<g clip-path="url(#clip0_42_5017)">
<path d="M2.66668 4H1.33334V13.3333C1.33334 14.0667 1.93334 14.6667 2.66668 14.6667H12V13.3333H2.66668V4ZM13.3333 1.33333H5.33334C4.60001 1.33333 4.00001 1.93333 4.00001 2.66667V10.6667C4.00001 11.4 4.60001 12 5.33334 12H13.3333C14.0667 12 14.6667 11.4 14.6667 10.6667V2.66667C14.6667 1.93333 14.0667 1.33333 13.3333 1.33333ZM13.3333 10.6667H5.33334V2.66667H13.3333V10.6667ZM6.66668 6H12V7.33333H6.66668V6ZM6.66668 8H9.33334V9.33333H6.66668V8ZM6.66668 4H12V5.33333H6.66668V4Z" fill="#D4D4D4"/>
</g>
<defs>
<clipPath id="clip0_42_5017">
<rect width="16" height="16" fill="white"/>
</clipPath>
</defs>
</svg>
