<svg width="16" height="16" viewBox="0 0 16 16" fill="none" xmlns="http://www.w3.org/2000/svg">
<path fill-rule="evenodd" clip-rule="evenodd" d="M3.85102 3.69966C4.26169 4.03333 4.41569 4.008 5.18702 3.95633L12.4577 3.51966C12.612 3.51966 12.4837 3.366 12.4324 3.34033L11.225 2.46733C10.9937 2.28766 10.6854 2.082 10.0947 2.13333L3.05469 2.64666C2.79802 2.672 2.74669 2.80033 2.84902 2.90333L3.85102 3.69966ZM4.28735 5.394V13.044C4.28735 13.455 4.49269 13.609 4.95535 13.5837L12.9457 13.1213C13.4084 13.096 13.46 12.813 13.46 12.479V4.88033C13.46 4.547 13.3317 4.367 13.0487 4.39266L4.69869 4.88033C4.39035 4.906 4.28735 5.06033 4.28735 5.394ZM12.1754 5.80433C12.2267 6.03566 12.1754 6.26666 11.9437 6.29266L11.5587 6.36933V12.017C11.2244 12.1967 10.916 12.2993 10.6594 12.2993C10.248 12.2993 10.145 12.171 9.83702 11.786L7.31869 7.83266V11.6577L8.11569 11.8373C8.11569 11.8373 8.11569 12.2993 7.47269 12.2993L5.70035 12.402C5.64902 12.2993 5.70035 12.0427 5.88002 11.9913L6.34269 11.863V6.806L5.70035 6.75466C5.64869 6.52333 5.77702 6.19 6.13702 6.164L8.03835 6.03566L10.659 10.0407V6.49766L9.99069 6.421C9.93935 6.13833 10.1447 5.933 10.4017 5.90766L12.1754 5.80433ZM2.46302 1.954L9.78569 1.41466C10.685 1.33766 10.9164 1.38933 11.4814 1.79966L13.819 3.44266C14.2047 3.72533 14.3334 3.80233 14.3334 4.11V13.1207C14.3334 13.6853 14.1277 14.0193 13.4084 14.0703L4.90435 14.584C4.36435 14.6097 4.10735 14.5327 3.82469 14.1733L2.10335 11.94C1.79502 11.529 1.66669 11.2213 1.66669 10.8617V2.852C1.66669 2.39033 1.87235 2.005 2.46302 1.954Z" fill="#D4D4D4"/>
</svg>
