<svg width="16" height="16" viewBox="0 0 16 16" fill="none" xmlns="http://www.w3.org/2000/svg">
<path fill-rule="evenodd" clip-rule="evenodd" d="M3.85103 3.69964C4.2617 4.0333 4.4157 4.00797 5.18703 3.9563L12.4577 3.51964C12.612 3.51964 12.4837 3.36597 12.4324 3.3403L11.225 2.4673C10.9937 2.28764 10.6854 2.08197 10.0947 2.1333L3.0547 2.64664C2.79803 2.67197 2.7467 2.8003 2.84903 2.9033L3.85103 3.69964Z" fill="white"/>
<path fill-rule="evenodd" clip-rule="evenodd" d="M4.28735 5.39401V13.044C4.28735 13.455 4.49269 13.609 4.95535 13.5837L12.9457 13.1213C13.4084 13.096 13.46 12.813 13.46 12.479V4.88034C13.46 4.54701 13.3317 4.36701 13.0487 4.39267L4.69869 4.88034C4.39035 4.90601 4.28735 5.06034 4.28735 5.39401Z" fill="white"/>
<path fill-rule="evenodd" clip-rule="evenodd" d="M3.85096 3.69969C4.26163 4.03335 4.41563 4.00802 5.18696 3.95635L12.4576 3.51969C12.612 3.51969 12.4836 3.36602 12.4323 3.34035L11.225 2.46735C10.9936 2.28769 10.6853 2.08202 10.0946 2.13335L3.05463 2.64669C2.79796 2.67202 2.74663 2.80035 2.84896 2.90335L3.85096 3.69969ZM4.28729 5.39402V13.044C4.28729 13.455 4.49263 13.609 4.95529 13.5837L12.9456 13.1214C13.4083 13.096 13.46 12.813 13.46 12.479V4.88035C13.46 4.54702 13.3316 4.36702 13.0486 4.39269L4.69863 4.88035C4.39029 4.90602 4.28729 5.06035 4.28729 5.39402ZM12.1753 5.80435C12.2266 6.03569 12.1753 6.26669 11.9436 6.29269L11.5586 6.36935V12.017C11.2243 12.1967 10.916 12.2994 10.6593 12.2994C10.248 12.2994 10.145 12.171 9.83696 11.786L7.31863 7.83269V11.6577L8.11563 11.8374C8.11563 11.8374 8.11563 12.2994 7.47263 12.2994L5.70029 12.402C5.64896 12.2994 5.70029 12.0427 5.87996 11.9914L6.34263 11.863V6.80602L5.70029 6.75469C5.64863 6.52335 5.77696 6.19002 6.13696 6.16402L8.03829 6.03569L10.659 10.0407V6.49769L9.99063 6.42102C9.93929 6.13835 10.1446 5.93302 10.4016 5.90769L12.1753 5.80435ZM2.46296 1.95402L9.78563 1.41469C10.685 1.33769 10.9163 1.38935 11.4813 1.79969L13.819 3.44269C14.2046 3.72535 14.3333 3.80235 14.3333 4.11002V13.1207C14.3333 13.6854 14.1276 14.0194 13.4083 14.0704L4.90429 14.584C4.36429 14.6097 4.10729 14.5327 3.82463 14.1734L2.10329 11.94C1.79496 11.529 1.66663 11.2214 1.66663 10.8617V2.85202C1.66663 2.39035 1.87229 2.00502 2.46296 1.95402Z" fill="#323232"/>
</svg>
